<?xml version="1.0" encoding="UTF-8"?>
<svg width="36px" height="36px" viewBox="0 0 36 36" version="1.1" xmlns="http://www.w3.org/2000/svg" xmlns:xlink="http://www.w3.org/1999/xlink">
    <!-- Generator: Sketch 47.1 (45422) - http://www.bohemiancoding.com/sketch -->
    <title>Facebook</title>
    <desc>Created with Sketch.</desc>
    <defs></defs>
    <g id="Page-4" stroke="none" stroke-width="1" fill="none" fill-rule="evenodd">
        <g id="Facebook-(1)" fill-rule="nonzero" fill="#43619C">
            <path d="M18.0023706,0 C8.0600553,0 0,8.06005531 0,18.0023706 C0,27.9399447 8.0600553,36 18.0023706,36 C27.9399447,36 36,27.9399447 36,18.0023706 C36,8.06005531 27.9399447,0 18.0023706,0 L18.0023706,0 Z M26.7593836,25.6120111 C26.7593836,26.1430265 26.4986171,26.4891347 25.9723429,26.4891347 L21.5440537,26.4891347 L21.5440537,19.8514421 L23.796128,19.8514421 L24.1374951,17.0067167 L21.5440537,17.0067167 L21.5440537,15.5274595 C21.5440537,14.7688661 21.7479257,14.1619913 22.8384038,14.1619913 L24.3887791,14.1619913 L24.3887791,11.9004346 C23.9146582,11.8672461 23.1797708,11.796128 22.2173054,11.796128 C20.2165152,11.796128 18.6993283,13.0193599 18.6993283,15.266693 L18.6993283,17.0067167 L16.3287238,17.0067167 L16.3287238,19.8514421 L18.6993283,19.8514421 L18.6993283,26.4891347 L10.4875543,26.4891347 C9.9565389,26.4891347 9.6910312,26.1430265 9.6910312,25.6120111 L9.6910312,10.1272224 C9.6910312,9.59620703 9.9565389,8.9466614 10.4875543,8.9466614 L25.9723429,8.9466614 C26.4986171,8.9466614 26.7593836,9.59620703 26.7593836,10.1272224 L26.7593836,25.6120111 L26.7593836,25.6120111 Z" id="Facebook"></path>
        </g>
    </g>
</svg>