<?xml version="1.0" encoding="UTF-8"?>
<svg width="36px" height="36px" viewBox="0 0 36 36" version="1.1" xmlns="http://www.w3.org/2000/svg" xmlns:xlink="http://www.w3.org/1999/xlink">
    <!-- Generator: Sketch 47.1 (45422) - http://www.bohemiancoding.com/sketch -->
    <title>Google+</title>
    <desc>Created with Sketch.</desc>
    <defs></defs>
    <g id="Page-4" stroke="none" stroke-width="1" fill="none" fill-rule="evenodd">
        <g id="Google+" fill="#F24033" fill-rule="nonzero">
            <path d="M18.0023706,0 C8.06005531,0 0,8.06005531 0,18.0023706 C0,27.9399447 8.06005531,36 18.0023706,36 C27.9399447,36 36,27.9399447 36,18.0023706 C36,8.06005531 27.9399447,0 18.0023706,0 L18.0023706,0 Z M14.5080996,24.2323192 C11.1513236,24.2323192 8.42986962,21.4776768 8.42986962,18.1161596 C8.42986962,14.7546424 11.1513236,12.0094824 14.5080996,12.0094824 C16.082181,12.0094824 17.5187673,12.6068748 18.5950217,13.588305 C17.3243777,14.7925721 17.3670486,14.858949 16.8644804,15.3615172 C16.2433821,14.8399842 15.560648,14.4654287 14.5080996,14.4654287 C12.5120506,14.4654287 10.956934,16.0869222 10.956934,18.0829712 C10.956934,20.0790202 12.5120506,21.7479257 14.5080996,21.7479257 C16.4757013,21.7479257 17.2769656,20.7996839 17.7937574,19.3773212 L14.5792177,19.3773212 L14.5792177,17.0067167 L20.3445279,17.0067167 C20.7475306,19.8514421 19.5242987,24.2323192 14.5080996,24.2323192 L14.5080996,24.2323192 Z M27.380482,18.4290794 L25.4839984,18.4290794 L25.4839984,20.7996839 L24.0616357,20.7996839 L24.0616357,18.4290794 L21.6910312,18.4290794 L21.6910312,17.0067167 L24.0616357,17.0067167 L24.0616357,15.1102331 L25.4839984,15.1102331 L25.4839984,17.0067167 L27.380482,17.0067167 L27.380482,18.4290794 L27.380482,18.4290794 Z"></path>
        </g>
    </g>
</svg>